<svg xmlns="http://www.w3.org/2000/svg" xmlns:xlink="http://www.w3.org/1999/xlink" width="500" zoomAndPan="magnify" viewBox="0 0 375 374.999991" height="500" preserveAspectRatio="xMidYMid meet" version="1.0"><defs><clipPath id="2c005ba81a"><path d="M 7.5 14 L 367.5 14 L 367.5 375 L 7.5 375 Z M 7.5 14 " clip-rule="nonzero"/></clipPath></defs><g clip-path="url(#2c005ba81a)"><path fill="#ffffff" d="M 317.496094 55.15625 L 288.585938 55.15625 C 286.910156 53.535156 285.199219 51.957031 283.449219 50.417969 C 281.699219 48.882812 279.914062 47.386719 278.09375 45.933594 C 276.269531 44.484375 274.414062 43.078125 272.527344 41.714844 C 270.636719 40.351562 268.714844 39.035156 266.765625 37.765625 C 264.8125 36.496094 262.828125 35.273438 260.816406 34.097656 C 258.808594 32.921875 256.769531 31.796875 254.703125 30.71875 C 252.636719 29.644531 250.546875 28.617188 248.433594 27.640625 C 246.316406 26.664062 244.179688 25.738281 242.023438 24.863281 C 239.863281 23.992188 237.683594 23.167969 235.484375 22.398438 C 233.285156 21.632812 231.070312 20.914062 228.835938 20.253906 C 226.605469 19.589844 224.355469 18.980469 222.09375 18.429688 C 219.832031 17.875 217.558594 17.375 215.269531 16.929688 C 212.984375 16.484375 210.6875 16.09375 208.382812 15.757812 C 206.078125 15.425781 203.765625 15.144531 201.449219 14.921875 C 199.128906 14.699219 196.808594 14.53125 194.480469 14.417969 C 192.152344 14.308594 189.824219 14.25 187.496094 14.25 C 185.167969 14.25 182.839844 14.308594 180.511719 14.417969 C 178.1875 14.53125 175.863281 14.699219 173.542969 14.921875 C 171.226562 15.144531 168.914062 15.425781 166.609375 15.757812 C 164.304688 16.09375 162.007812 16.484375 159.722656 16.929688 C 157.433594 17.375 155.160156 17.875 152.898438 18.429688 C 150.636719 18.980469 148.386719 19.589844 146.15625 20.253906 C 143.921875 20.914062 141.707031 21.632812 139.507812 22.398438 C 137.308594 23.167969 135.128906 23.992188 132.972656 24.863281 C 130.8125 25.738281 128.675781 26.664062 126.558594 27.640625 C 124.445312 28.617188 122.355469 29.644531 120.289062 30.71875 C 118.222656 31.796875 116.1875 32.921875 114.175781 34.097656 C 112.164062 35.273438 110.179688 36.496094 108.230469 37.765625 C 106.277344 39.035156 104.355469 40.351562 102.464844 41.714844 C 100.578125 43.078125 98.722656 44.484375 96.898438 45.933594 C 95.078125 47.386719 93.292969 48.882812 91.542969 50.417969 C 89.792969 51.957031 88.082031 53.535156 86.40625 55.15625 L 57.496094 55.15625 C 55.859375 55.15625 54.226562 55.238281 52.597656 55.402344 C 50.96875 55.5625 49.351562 55.804688 47.746094 56.125 C 46.140625 56.445312 44.554688 56.84375 42.988281 57.320312 C 41.421875 57.796875 39.882812 58.351562 38.371094 58.976562 C 36.859375 59.605469 35.378906 60.304688 33.9375 61.078125 C 32.492188 61.847656 31.09375 62.691406 29.730469 63.601562 C 28.371094 64.511719 27.058594 65.484375 25.792969 66.523438 C 24.527344 67.5625 23.316406 68.660156 22.15625 69.820312 C 21 70.976562 19.902344 72.1875 18.863281 73.453125 C 17.824219 74.71875 16.851562 76.03125 15.941406 77.390625 C 15.03125 78.753906 14.191406 80.15625 13.417969 81.597656 C 12.644531 83.042969 11.945312 84.519531 11.320312 86.03125 C 10.691406 87.542969 10.140625 89.082031 9.664062 90.648438 C 9.1875 92.214844 8.789062 93.800781 8.46875 95.40625 C 8.148438 97.011719 7.90625 98.628906 7.746094 100.257812 C 7.582031 101.886719 7.5 103.519531 7.5 105.15625 L 7.5 324.238281 C 7.5 325.878906 7.582031 327.511719 7.746094 329.140625 C 7.90625 330.769531 8.148438 332.386719 8.46875 333.992188 C 8.789062 335.597656 9.1875 337.183594 9.664062 338.75 C 10.140625 340.316406 10.691406 341.855469 11.316406 343.367188 C 11.945312 344.878906 12.644531 346.359375 13.417969 347.800781 C 14.1875 349.246094 15.027344 350.648438 15.9375 352.007812 C 16.847656 353.371094 17.824219 354.683594 18.863281 355.949219 C 19.898438 357.214844 20.996094 358.425781 22.15625 359.582031 C 23.3125 360.742188 24.523438 361.839844 25.789062 362.878906 C 27.054688 363.917969 28.367188 364.894531 29.730469 365.804688 C 31.089844 366.714844 32.492188 367.554688 33.933594 368.328125 C 35.378906 369.097656 36.855469 369.800781 38.367188 370.425781 C 39.878906 371.054688 41.421875 371.605469 42.984375 372.082031 C 44.550781 372.558594 46.136719 372.957031 47.742188 373.277344 C 49.347656 373.601562 50.964844 373.839844 52.59375 374.003906 C 54.226562 374.164062 55.859375 374.246094 57.496094 374.25 L 317.496094 374.25 C 319.132812 374.246094 320.769531 374.164062 322.398438 374.003906 C 324.027344 373.839844 325.644531 373.601562 327.25 373.277344 C 328.855469 372.957031 330.441406 372.558594 332.007812 372.082031 C 333.574219 371.605469 335.113281 371.054688 336.625 370.425781 C 338.136719 369.800781 339.613281 369.097656 341.058594 368.328125 C 342.503906 367.554688 343.90625 366.714844 345.265625 365.804688 C 346.625 364.894531 347.941406 363.917969 349.207031 362.878906 C 350.46875 361.839844 351.683594 360.742188 352.839844 359.585938 C 353.996094 358.425781 355.09375 357.214844 356.132812 355.949219 C 357.171875 354.683594 358.148438 353.371094 359.058594 352.007812 C 359.96875 350.648438 360.808594 349.246094 361.582031 347.800781 C 362.351562 346.359375 363.050781 344.878906 363.679688 343.367188 C 364.308594 341.855469 364.859375 340.316406 365.335938 338.75 C 365.8125 337.183594 366.210938 335.597656 366.53125 333.992188 C 366.851562 332.386719 367.09375 330.769531 367.253906 329.140625 C 367.417969 327.511719 367.5 325.878906 367.5 324.238281 L 367.5 105.15625 C 367.496094 103.519531 367.414062 101.886719 367.253906 100.257812 C 367.089844 98.628906 366.851562 97.011719 366.53125 95.40625 C 366.207031 93.800781 365.808594 92.214844 365.332031 90.648438 C 364.855469 89.082031 364.304688 87.542969 363.679688 86.03125 C 363.050781 84.519531 362.351562 83.042969 361.578125 81.597656 C 360.804688 80.15625 359.964844 78.753906 359.054688 77.390625 C 358.144531 76.03125 357.171875 74.71875 356.132812 73.453125 C 355.09375 72.1875 353.996094 70.976562 352.835938 69.816406 C 351.679688 68.660156 350.46875 67.5625 349.203125 66.523438 C 347.9375 65.484375 346.625 64.511719 345.261719 63.601562 C 343.902344 62.691406 342.5 61.847656 341.058594 61.078125 C 339.613281 60.304688 338.136719 59.605469 336.625 58.976562 C 335.109375 58.351562 333.570312 57.796875 332.003906 57.320312 C 330.441406 56.84375 328.855469 56.445312 327.25 56.125 C 325.644531 55.804688 324.027344 55.5625 322.398438 55.402344 C 320.769531 55.238281 319.132812 55.15625 317.496094 55.15625 Z M 356.585938 324.238281 C 356.585938 325.519531 356.523438 326.796875 356.394531 328.070312 C 356.269531 329.34375 356.082031 330.609375 355.832031 331.863281 C 355.578125 333.121094 355.269531 334.359375 354.894531 335.585938 C 354.523438 336.808594 354.09375 338.011719 353.601562 339.195312 C 353.113281 340.378906 352.566406 341.535156 351.960938 342.664062 C 351.359375 343.792969 350.699219 344.886719 349.988281 345.953125 C 349.277344 347.015625 348.515625 348.042969 347.703125 349.03125 C 346.890625 350.023438 346.03125 350.96875 345.128906 351.875 C 344.222656 352.78125 343.277344 353.640625 342.285156 354.453125 C 341.296875 355.265625 340.269531 356.027344 339.207031 356.738281 C 338.144531 357.449219 337.046875 358.109375 335.917969 358.710938 C 334.789062 359.316406 333.632812 359.863281 332.453125 360.355469 C 331.269531 360.84375 330.066406 361.277344 328.839844 361.648438 C 327.617188 362.023438 326.378906 362.332031 325.121094 362.585938 C 323.867188 362.835938 322.601562 363.023438 321.328125 363.152344 C 320.054688 363.277344 318.777344 363.34375 317.496094 363.34375 L 57.496094 363.34375 C 56.214844 363.34375 54.9375 363.277344 53.664062 363.152344 C 52.390625 363.023438 51.125 362.835938 49.871094 362.582031 C 48.617188 362.332031 47.378906 362.019531 46.152344 361.648438 C 44.929688 361.273438 43.726562 360.84375 42.542969 360.351562 C 41.359375 359.859375 40.207031 359.3125 39.078125 358.710938 C 37.949219 358.105469 36.851562 357.445312 35.789062 356.734375 C 34.726562 356.023438 33.699219 355.261719 32.710938 354.449219 C 31.722656 353.636719 30.773438 352.777344 29.867188 351.871094 C 28.964844 350.96875 28.105469 350.019531 27.292969 349.03125 C 26.480469 348.039062 25.722656 347.015625 25.007812 345.949219 C 24.296875 344.886719 23.640625 343.789062 23.039062 342.660156 C 22.433594 341.53125 21.886719 340.375 21.398438 339.195312 C 20.90625 338.011719 20.476562 336.808594 20.105469 335.582031 C 19.730469 334.359375 19.421875 333.117188 19.167969 331.863281 C 18.917969 330.609375 18.730469 329.34375 18.605469 328.070312 C 18.476562 326.796875 18.414062 325.519531 18.414062 324.238281 L 18.414062 105.15625 C 18.414062 103.878906 18.476562 102.601562 18.605469 101.328125 C 18.730469 100.054688 18.917969 98.789062 19.167969 97.535156 C 19.421875 96.28125 19.730469 95.039062 20.105469 93.816406 C 20.476562 92.589844 20.90625 91.386719 21.398438 90.207031 C 21.886719 89.023438 22.433594 87.867188 23.039062 86.738281 C 23.640625 85.613281 24.300781 84.515625 25.011719 83.453125 C 25.722656 82.386719 26.484375 81.359375 27.292969 80.371094 C 28.105469 79.382812 28.964844 78.433594 29.871094 77.53125 C 30.773438 76.625 31.722656 75.765625 32.710938 74.953125 C 33.699219 74.140625 34.726562 73.378906 35.789062 72.667969 C 36.855469 71.957031 37.949219 71.300781 39.078125 70.695312 C 40.207031 70.09375 41.363281 69.546875 42.542969 69.054688 C 43.726562 68.566406 44.929688 68.132812 46.152344 67.761719 C 47.378906 67.386719 48.617188 67.078125 49.871094 66.824219 C 51.128906 66.574219 52.390625 66.386719 53.664062 66.261719 C 54.9375 66.132812 56.214844 66.070312 57.496094 66.066406 L 88.636719 66.066406 C 89.355469 66.066406 90.050781 65.929688 90.71875 65.652344 C 91.386719 65.378906 91.976562 64.984375 92.488281 64.476562 C 94.046875 62.921875 95.636719 61.410156 97.269531 59.933594 C 98.898438 58.457031 100.5625 57.023438 102.261719 55.628906 C 103.964844 54.234375 105.695312 52.882812 107.464844 51.574219 C 109.230469 50.265625 111.027344 49 112.855469 47.78125 C 114.683594 46.558594 116.542969 45.386719 118.429688 44.253906 C 120.316406 43.125 122.226562 42.042969 124.167969 41.007812 C 126.105469 39.972656 128.070312 38.984375 130.058594 38.046875 C 132.046875 37.105469 134.054688 36.214844 136.085938 35.375 C 138.117188 34.535156 140.167969 33.742188 142.238281 33.003906 C 144.308594 32.261719 146.398438 31.574219 148.5 30.9375 C 150.605469 30.300781 152.722656 29.714844 154.855469 29.179688 C 156.988281 28.644531 159.132812 28.164062 161.289062 27.734375 C 163.445312 27.308594 165.613281 26.933594 167.789062 26.609375 C 169.960938 26.285156 172.144531 26.019531 174.332031 25.804688 C 176.519531 25.585938 178.710938 25.425781 180.90625 25.316406 C 183.105469 25.210938 185.300781 25.15625 187.5 25.15625 C 189.699219 25.15625 191.894531 25.210938 194.09375 25.316406 C 196.289062 25.425781 198.480469 25.585938 200.667969 25.804688 C 202.855469 26.019531 205.039062 26.285156 207.210938 26.609375 C 209.386719 26.933594 211.554688 27.308594 213.710938 27.734375 C 215.867188 28.164062 218.011719 28.644531 220.144531 29.179688 C 222.277344 29.714844 224.394531 30.300781 226.5 30.9375 C 228.601562 31.574219 230.691406 32.261719 232.761719 33.003906 C 234.832031 33.742188 236.882812 34.535156 238.914062 35.375 C 240.945312 36.214844 242.953125 37.105469 244.941406 38.046875 C 246.929688 38.984375 248.894531 39.972656 250.832031 41.007812 C 252.773438 42.042969 254.683594 43.125 256.570312 44.253906 C 258.457031 45.386719 260.316406 46.558594 262.144531 47.78125 C 263.972656 49 265.769531 50.265625 267.535156 51.574219 C 269.304688 52.882812 271.035156 54.234375 272.738281 55.628906 C 274.4375 57.023438 276.101562 58.457031 277.730469 59.933594 C 279.363281 61.410156 280.953125 62.921875 282.511719 64.476562 C 283.023438 64.984375 283.609375 65.378906 284.277344 65.652344 C 284.941406 65.929688 285.636719 66.066406 286.359375 66.066406 L 317.496094 66.066406 C 318.777344 66.070312 320.054688 66.132812 321.328125 66.257812 C 322.601562 66.386719 323.867188 66.574219 325.121094 66.824219 C 326.375 67.074219 327.617188 67.386719 328.839844 67.757812 C 330.066406 68.132812 331.269531 68.5625 332.449219 69.054688 C 333.632812 69.542969 334.789062 70.089844 335.917969 70.695312 C 337.046875 71.296875 338.140625 71.957031 339.207031 72.667969 C 340.269531 73.378906 341.296875 74.140625 342.285156 74.953125 C 343.273438 75.765625 344.222656 76.621094 345.128906 77.527344 C 346.03125 78.433594 346.890625 79.378906 347.703125 80.371094 C 348.515625 81.359375 349.277344 82.386719 349.988281 83.449219 C 350.699219 84.511719 351.355469 85.609375 351.960938 86.738281 C 352.5625 87.867188 353.113281 89.023438 353.601562 90.203125 C 354.09375 91.386719 354.523438 92.589844 354.894531 93.816406 C 355.269531 95.039062 355.578125 96.277344 355.832031 97.535156 C 356.082031 98.789062 356.269531 100.054688 356.394531 101.328125 C 356.523438 102.601562 356.585938 103.878906 356.585938 105.15625 Z M 356.585938 324.238281 " fill-opacity="1" fill-rule="nonzero"/></g><path fill="#ffffff" d="M 187.5 48.433594 C 182.777344 48.433594 178.074219 48.71875 173.386719 49.296875 C 168.699219 49.875 164.066406 50.742188 159.484375 51.890625 C 154.90625 53.042969 150.414062 54.46875 146.007812 56.175781 C 141.605469 57.882812 137.324219 59.851562 133.164062 62.085938 C 129.003906 64.320312 124.996094 66.800781 121.140625 69.53125 C 117.289062 72.261719 113.617188 75.21875 110.128906 78.398438 C 106.640625 81.582031 103.359375 84.96875 100.289062 88.558594 C 97.21875 92.144531 94.382812 95.910156 91.777344 99.847656 C 91.253906 100.636719 90.957031 101.503906 90.886719 102.445312 C 90.8125 103.390625 90.976562 104.289062 91.371094 105.148438 L 118.640625 164.25 C 118.859375 164.722656 119.140625 165.15625 119.484375 165.550781 C 119.828125 165.941406 120.21875 166.28125 120.65625 166.5625 C 121.097656 166.84375 121.566406 167.054688 122.066406 167.203125 C 122.566406 167.347656 123.078125 167.421875 123.601562 167.421875 L 251.398438 167.421875 C 251.921875 167.421875 252.433594 167.347656 252.933594 167.203125 C 253.433594 167.054688 253.902344 166.839844 254.34375 166.558594 C 254.78125 166.277344 255.171875 165.941406 255.515625 165.550781 C 255.859375 165.15625 256.136719 164.722656 256.359375 164.25 L 283.628906 105.136719 C 284.023438 104.277344 284.1875 103.375 284.113281 102.429688 C 284.039062 101.484375 283.738281 100.621094 283.214844 99.832031 C 280.609375 95.894531 277.773438 92.132812 274.703125 88.542969 C 271.632812 84.957031 268.351562 81.570312 264.863281 78.386719 C 261.375 75.207031 257.707031 72.25 253.851562 69.519531 C 250 66.792969 245.992188 64.308594 241.832031 62.074219 C 237.671875 59.84375 233.390625 57.871094 228.988281 56.167969 C 224.582031 54.464844 220.09375 53.035156 215.511719 51.886719 C 210.933594 50.734375 206.300781 49.871094 201.613281 49.296875 C 196.925781 48.71875 192.222656 48.429688 187.5 48.433594 Z M 209.496094 156.523438 L 165.511719 156.523438 C 165.808594 155.300781 166.207031 154.113281 166.703125 152.957031 C 167.203125 151.800781 167.792969 150.695312 168.472656 149.636719 C 169.15625 148.578125 169.921875 147.585938 170.769531 146.65625 C 171.617188 145.726562 172.535156 144.871094 173.523438 144.09375 C 174.515625 143.316406 175.5625 142.628906 176.667969 142.027344 C 177.773438 141.421875 178.917969 140.917969 180.109375 140.503906 C 181.296875 140.09375 182.511719 139.785156 183.753906 139.578125 C 184.996094 139.367188 186.246094 139.265625 187.503906 139.265625 C 188.761719 139.265625 190.011719 139.367188 191.253906 139.578125 C 192.496094 139.785156 193.710938 140.09375 194.898438 140.503906 C 196.089844 140.917969 197.234375 141.421875 198.339844 142.027344 C 199.445312 142.628906 200.492188 143.316406 201.484375 144.09375 C 202.472656 144.871094 203.390625 145.726562 204.238281 146.65625 C 205.085938 147.585938 205.851562 148.578125 206.535156 149.636719 C 207.214844 150.695312 207.804688 151.800781 208.304688 152.957031 C 208.800781 154.113281 209.199219 155.300781 209.496094 156.523438 Z M 247.914062 156.523438 L 220.65625 156.523438 C 220.214844 153.882812 219.472656 151.332031 218.421875 148.871094 C 217.375 146.40625 216.054688 144.101562 214.457031 141.953125 C 212.859375 139.804688 211.03125 137.871094 208.976562 136.160156 C 206.917969 134.445312 204.691406 132.996094 202.289062 131.8125 L 211.980469 101.25 C 212.074219 100.914062 212.136719 100.570312 212.164062 100.21875 C 212.191406 99.871094 212.1875 99.519531 212.148438 99.171875 C 212.109375 98.824219 212.035156 98.484375 211.929688 98.148438 C 211.828125 97.8125 211.691406 97.492188 211.523438 97.183594 C 211.359375 96.875 211.164062 96.585938 210.941406 96.316406 C 210.71875 96.042969 210.472656 95.796875 210.203125 95.574219 C 209.933594 95.351562 209.644531 95.15625 209.335938 94.988281 C 209.027344 94.820312 208.707031 94.683594 208.371094 94.578125 C 208.039062 94.46875 207.695312 94.398438 207.347656 94.355469 C 207 94.316406 206.652344 94.308594 206.300781 94.335938 C 205.953125 94.363281 205.609375 94.425781 205.269531 94.515625 C 204.933594 94.609375 204.605469 94.734375 204.292969 94.890625 C 203.980469 95.046875 203.683594 95.230469 203.40625 95.445312 C 203.125 95.65625 202.871094 95.894531 202.636719 96.15625 C 202.40625 96.417969 202.199219 96.699219 202.019531 97.003906 C 201.84375 97.304688 201.695312 97.621094 201.578125 97.949219 L 191.828125 128.699219 C 190.394531 128.484375 188.949219 128.367188 187.5 128.339844 C 186.511719 128.339844 185.527344 128.386719 184.546875 128.476562 C 183.566406 128.5625 182.585938 128.695312 181.617188 128.867188 C 180.644531 129.042969 179.683594 129.257812 178.734375 129.515625 C 177.78125 129.777344 176.84375 130.074219 175.917969 130.417969 C 174.992188 130.757812 174.082031 131.140625 173.191406 131.558594 C 172.296875 131.980469 171.425781 132.441406 170.574219 132.9375 C 169.722656 133.433594 168.894531 133.96875 168.089844 134.539062 C 167.285156 135.109375 166.507812 135.714844 165.757812 136.355469 C 165.003906 136.992188 164.285156 137.664062 163.589844 138.367188 C 162.898438 139.070312 162.238281 139.800781 161.609375 140.558594 C 160.980469 141.320312 160.386719 142.105469 159.828125 142.921875 C 159.269531 143.734375 158.75 144.566406 158.261719 145.425781 C 157.777344 146.285156 157.332031 147.164062 156.921875 148.0625 C 156.511719 148.960938 156.144531 149.875 155.816406 150.804688 C 155.488281 151.734375 155.203125 152.675781 154.957031 153.632812 C 154.714844 154.585938 154.511719 155.550781 154.351562 156.523438 L 127.085938 156.523438 L 102.570312 103.394531 C 109.867188 93.058594 118.75 84.34375 129.226562 77.25 L 136.140625 89.03125 C 136.632812 89.867188 137.300781 90.523438 138.140625 91 C 138.984375 91.480469 139.890625 91.71875 140.859375 91.71875 C 141.839844 91.71875 142.753906 91.472656 143.605469 90.980469 C 144.453125 90.484375 145.121094 89.8125 145.605469 88.957031 C 146.089844 88.105469 146.328125 87.1875 146.316406 86.203125 C 146.304688 85.222656 146.050781 84.308594 145.546875 83.46875 L 138.570312 71.601562 C 145.285156 68.007812 152.3125 65.191406 159.652344 63.152344 C 166.988281 61.109375 174.464844 59.894531 182.070312 59.503906 L 182.070312 72.886719 C 182.054688 73.25 182.078125 73.617188 182.140625 73.976562 C 182.199219 74.339844 182.292969 74.691406 182.425781 75.035156 C 182.558594 75.378906 182.71875 75.703125 182.917969 76.015625 C 183.113281 76.324219 183.339844 76.613281 183.59375 76.875 C 183.847656 77.140625 184.128906 77.375 184.429688 77.585938 C 184.730469 77.792969 185.050781 77.96875 185.390625 78.113281 C 185.726562 78.253906 186.078125 78.363281 186.4375 78.4375 C 186.796875 78.511719 187.160156 78.546875 187.527344 78.546875 C 187.894531 78.546875 188.257812 78.511719 188.617188 78.4375 C 188.976562 78.363281 189.324219 78.253906 189.664062 78.113281 C 190 77.96875 190.320312 77.792969 190.621094 77.585938 C 190.925781 77.375 191.203125 77.140625 191.457031 76.875 C 191.710938 76.613281 191.9375 76.324219 192.136719 76.015625 C 192.332031 75.703125 192.496094 75.378906 192.625 75.035156 C 192.757812 74.691406 192.851562 74.339844 192.914062 73.976562 C 192.972656 73.617188 192.996094 73.25 192.984375 72.886719 L 192.984375 59.503906 C 200.589844 59.894531 208.0625 61.109375 215.402344 63.148438 C 222.738281 65.191406 229.765625 68.007812 236.484375 71.601562 L 229.507812 83.46875 C 229.339844 83.777344 229.207031 84.097656 229.101562 84.429688 C 228.996094 84.765625 228.921875 85.105469 228.882812 85.453125 C 228.84375 85.800781 228.839844 86.152344 228.867188 86.5 C 228.894531 86.847656 228.957031 87.191406 229.050781 87.53125 C 229.144531 87.867188 229.269531 88.191406 229.425781 88.503906 C 229.582031 88.820312 229.765625 89.113281 229.980469 89.390625 C 230.195312 89.667969 230.433594 89.925781 230.695312 90.15625 C 230.957031 90.386719 231.238281 90.59375 231.539062 90.769531 C 231.84375 90.949219 232.160156 91.09375 232.488281 91.210938 C 232.820312 91.328125 233.15625 91.414062 233.503906 91.464844 C 233.851562 91.515625 234.199219 91.535156 234.546875 91.519531 C 234.898438 91.503906 235.242188 91.457031 235.582031 91.375 C 235.925781 91.292969 236.253906 91.179688 236.574219 91.035156 C 236.890625 90.890625 237.191406 90.714844 237.476562 90.511719 C 237.761719 90.308594 238.027344 90.078125 238.269531 89.824219 C 238.507812 89.570312 238.722656 89.296875 238.914062 89.003906 L 245.773438 77.25 C 256.25 84.355469 265.136719 93.078125 272.429688 103.425781 Z M 247.914062 156.523438 " fill-opacity="1" fill-rule="nonzero"/></svg>