<svg xmlns="http://www.w3.org/2000/svg" xmlns:xlink="http://www.w3.org/1999/xlink" width="500" zoomAndPan="magnify" viewBox="0 0 375 374.999991" height="500" preserveAspectRatio="xMidYMid meet" version="1.0"><defs><clipPath id="7e7b00cf75"><path d="M 72 52.445312 L 277 52.445312 L 277 129 L 72 129 Z M 72 52.445312 " clip-rule="nonzero"/></clipPath><clipPath id="31ad9c3629"><path d="M 20.507812 86 L 354.257812 86 L 354.257812 322.445312 L 20.507812 322.445312 Z M 20.507812 86 " clip-rule="nonzero"/></clipPath></defs><g clip-path="url(#7e7b00cf75)"><path fill="#f5f5f5" d="M 81.175781 126.597656 C 81.179688 126.597656 81.183594 126.59375 81.1875 126.59375 C 81.1875 126.59375 81.191406 126.59375 81.195312 126.589844 L 88.632812 124.738281 C 110.066406 88.921875 149.246094 64.886719 193.9375 64.886719 C 218.546875 64.886719 241.480469 72.175781 260.703125 84.703125 L 265.386719 83.539062 L 276.253906 80.828125 C 276.257812 80.828125 276.257812 80.828125 276.257812 80.828125 L 276.429688 80.785156 C 253.605469 63.101562 224.980469 52.566406 193.9375 52.566406 C 140.574219 52.566406 94.347656 83.707031 72.464844 128.769531 L 74.253906 128.324219 Z M 81.175781 126.597656 " fill-opacity="1" fill-rule="nonzero"/></g><path fill="#f5f5f5" d="M 59.21875 149.519531 L 47.484375 152.445312 C 47.484375 152.445312 44.46875 167.050781 49.429688 186.960938 C 49.429688 186.960938 47.921875 169.929688 48.933594 163.386719 C 48.933594 163.386719 49.953125 176.246094 52.734375 185.582031 C 52.664062 185.046875 50.179688 166.132812 50.695312 163.128906 C 50.695312 163.128906 53.210938 177.964844 55.347656 185.464844 C 55.222656 184.648438 52.429688 166.714844 52.601562 162.929688 C 52.601562 162.929688 56.023438 178.648438 57.753906 184.882812 C 57.675781 184.375 54.886719 166.324219 55.5 162.300781 C 55.5 162.300781 57.359375 174.871094 60.074219 184.316406 C 60.074219 184.308594 57.128906 158.699219 59.21875 149.519531 Z M 59.21875 149.519531 " fill-opacity="1" fill-rule="nonzero"/><path fill="#f5f5f5" d="M 76.824219 180.125 C 76.746094 179.617188 73.957031 161.566406 74.570312 157.546875 C 74.570312 157.546875 76.425781 170.121094 79.144531 179.5625 C 79.144531 179.5625 76.203125 153.949219 78.289062 144.769531 L 66.554688 147.695312 C 66.554688 147.695312 63.542969 162.300781 68.5 182.214844 C 68.5 182.214844 66.992188 165.179688 68.007812 158.636719 C 68.007812 158.636719 69.027344 171.496094 71.804688 180.832031 C 71.734375 180.296875 69.253906 161.382812 69.765625 158.382812 C 69.765625 158.382812 72.277344 173.210938 74.417969 180.710938 C 74.292969 179.894531 71.503906 161.964844 71.675781 158.179688 C 71.671875 158.175781 75.089844 173.890625 76.824219 180.125 Z M 76.824219 180.125 " fill-opacity="1" fill-rule="nonzero"/><path fill="#f5f5f5" d="M 95.800781 244.964844 C 93.375 241.710938 87.386719 224.5 87.199219 223.964844 C 88.589844 230.28125 92.949219 245.765625 92.949219 245.765625 C 91.007812 242.480469 84.984375 225.109375 84.792969 224.5625 C 86.421875 232.183594 91.167969 246.484375 91.167969 246.484375 C 89.28125 244.035156 82.429688 225.6875 82.429688 225.6875 C 84.351562 235.238281 89.492188 247.082031 89.492188 247.082031 C 85.527344 241.78125 78.871094 226.027344 78.871094 226.027344 C 83.832031 245.941406 93.347656 257.425781 93.347656 257.425781 L 105.082031 254.503906 C 98.929688 247.375 89.507812 223.378906 89.507812 223.378906 C 91.542969 232.988281 95.800781 244.964844 95.800781 244.964844 Z M 95.800781 244.964844 " fill-opacity="1" fill-rule="nonzero"/><path fill="#f5f5f5" d="M 76.363281 249.804688 C 73.9375 246.550781 67.949219 229.347656 67.761719 228.808594 C 69.15625 235.117188 73.511719 250.605469 73.511719 250.605469 C 71.570312 247.320312 65.546875 229.949219 65.355469 229.40625 C 66.984375 237.023438 71.730469 251.324219 71.730469 251.324219 C 69.84375 248.878906 62.996094 230.527344 62.996094 230.527344 C 64.914062 240.078125 70.054688 251.925781 70.054688 251.925781 C 66.089844 246.625 59.433594 230.871094 59.433594 230.871094 C 64.394531 250.78125 73.910156 262.269531 73.910156 262.269531 L 85.644531 259.34375 C 79.492188 252.21875 70.074219 228.21875 70.074219 228.21875 C 72.105469 237.832031 76.363281 249.804688 76.363281 249.804688 Z M 76.363281 249.804688 " fill-opacity="1" fill-rule="nonzero"/><path fill="#f5f5f5" d="M 40.433594 191.667969 C 40.433594 191.667969 42.03125 199.183594 44.023438 204.25 C 43.933594 203.738281 40.953125 187.082031 41.0625 182.117188 L 36.339844 183.292969 C 36.339844 183.292969 35.472656 192.988281 39.308594 205.4375 C 39.308594 205.4375 38.003906 196.554688 38.585938 192.308594 C 38.585938 192.308594 39.078125 197.566406 41.710938 204.839844 C 41.710938 204.839844 39.71875 195.03125 40.433594 191.667969 Z M 40.433594 191.667969 " fill-opacity="1" fill-rule="nonzero"/><path fill="#f5f5f5" d="M 51.074219 232.183594 C 48.867188 229.535156 46.023438 219.957031 46.023438 219.957031 C 47.089844 227.46875 49.070312 232.300781 49.144531 232.484375 C 46.636719 229.003906 43.621094 220.558594 43.621094 220.558594 C 46.078125 233.347656 51.390625 241.5 51.390625 241.5 L 56.109375 240.328125 C 53.683594 235.992188 48.503906 219.894531 48.34375 219.390625 C 48.953125 224.714844 51.011719 231.960938 51.074219 232.183594 Z M 51.074219 232.183594 " fill-opacity="1" fill-rule="nonzero"/><g clip-path="url(#31ad9c3629)"><path fill="#f5f5f5" d="M 350.191406 128.582031 C 349.203125 126.714844 347.027344 125.808594 344.972656 126.316406 L 335.414062 128.699219 C 331.910156 118.375 327.171875 108.179688 322.976562 109.222656 L 316.785156 110.765625 C 312.789062 100.785156 305.554688 85.386719 299.425781 86.910156 L 278.960938 92.011719 L 261.332031 96.402344 C 254.167969 98.183594 255.539062 122.132812 260.671875 147.316406 L 236.875 153.238281 L 234.167969 149.824219 L 234.316406 142.242188 L 227.597656 132.082031 L 212.429688 127.5 L 205.5625 136.660156 L 193.171875 136.371094 L 182.957031 142.386719 L 169.070312 145.175781 L 158.628906 153.25 L 146.394531 156.96875 L 141.324219 170.570312 L 141.394531 174.21875 L 139.125 174.773438 L 108.375 182.429688 L 108.367188 182.433594 C 101.082031 157.777344 91.058594 135.984375 83.894531 137.765625 L 66.265625 142.15625 L 66.207031 142.171875 L 45.804688 147.253906 C 39.671875 148.78125 40.507812 165.78125 41.664062 176.464844 L 35.472656 178.007812 C 31.273438 179.054688 31.871094 190.277344 33.621094 201.042969 L 24.0625 203.425781 C 22.011719 203.9375 20.515625 205.757812 20.519531 207.867188 C 20.535156 213.988281 21.96875 219.746094 24.824219 225.160156 C 25.8125 227.027344 27.988281 227.933594 30.039062 227.425781 L 39.425781 225.085938 C 42.980469 236.125 48.101562 247.929688 52.609375 246.808594 L 59.054688 245.203125 C 63.621094 256.304688 70.101562 268.78125 75.726562 267.378906 L 96.191406 262.277344 L 113.820312 257.886719 C 121.03125 256.09375 119.59375 231.808594 114.363281 206.429688 L 139.609375 200.128906 L 141.878906 199.566406 L 141.878906 199.601562 L 142.023438 207.34375 L 160.695312 247.234375 L 158.996094 305.050781 C 137.957031 298.789062 119.269531 287.019531 104.609375 271.421875 L 98.898438 272.84375 C 98.898438 272.84375 98.890625 272.84375 98.890625 272.84375 L 91.097656 274.785156 C 115.867188 303.925781 152.777344 322.445312 193.929688 322.445312 C 257.382812 322.445312 310.742188 278.425781 325.082031 219.324219 L 311.59375 222.683594 L 311.394531 222.734375 C 299.554688 262.128906 268.398438 293.242188 228.984375 305.019531 L 221.875 235.148438 L 250.199219 189.164062 L 245.820312 176.503906 L 266.617188 171.320312 L 266.625 171.320312 C 273.917969 196.191406 284.039062 218.316406 291.253906 216.519531 L 308.882812 212.128906 L 308.941406 212.113281 L 329.347656 207.03125 C 334.972656 205.628906 334.84375 191.574219 333.667969 179.621094 L 340.113281 178.019531 C 344.617188 176.894531 343.601562 164.070312 341.5625 152.65625 L 350.953125 150.316406 C 353.003906 149.800781 354.5 147.976562 354.5 145.871094 C 354.480469 139.753906 353.050781 133.992188 350.191406 128.582031 Z M 349.597656 133.949219 C 350.519531 136.191406 350.929688 138.5625 350.929688 138.5625 L 339.195312 141.484375 C 339.113281 141.167969 339.035156 140.839844 338.945312 140.507812 C 338.839844 140.101562 338.730469 139.683594 338.617188 139.257812 C 338.574219 139.105469 338.53125 138.953125 338.492188 138.796875 C 338.488281 138.785156 338.484375 138.777344 338.480469 138.765625 C 338.472656 138.734375 338.46875 138.703125 338.457031 138.667969 C 338.4375 138.59375 338.417969 138.519531 338.394531 138.441406 C 338.378906 138.382812 338.359375 138.324219 338.34375 138.261719 C 338.273438 137.996094 338.199219 137.734375 338.125 137.464844 C 338.070312 137.257812 338.007812 137.054688 337.953125 136.847656 Z M 347.300781 128.222656 C 347.820312 129.199219 348.246094 130.359375 348.382812 130.90625 L 336.972656 133.519531 C 336.90625 133.296875 336.835938 133.070312 336.765625 132.847656 C 336.574219 132.234375 336.382812 131.617188 336.183594 130.992188 Z M 261.167969 149.6875 L 261.171875 149.6875 L 263.28125 149.160156 L 263.296875 149.160156 L 265.167969 148.6875 C 265.175781 148.699219 265.183594 148.714844 265.191406 148.726562 C 265.355469 148.980469 265.53125 149.261719 265.714844 149.554688 C 265.734375 149.59375 265.757812 149.628906 265.78125 149.667969 C 265.84375 149.773438 265.90625 149.878906 265.972656 149.992188 C 266.070312 150.160156 266.164062 150.328125 266.265625 150.507812 C 266.363281 150.6875 266.460938 150.867188 266.558594 151.0625 L 263.855469 151.742188 L 263.851562 151.742188 L 261.726562 152.269531 L 261.722656 152.269531 L 239.359375 157.839844 L 239.253906 157.863281 L 238.394531 155.363281 L 238.496094 155.339844 Z M 265.316406 144.035156 C 265.832031 144.621094 266.304688 145.21875 266.730469 145.8125 C 269.953125 150.300781 270.6875 154.667969 270.6875 154.667969 C 273.273438 163.117188 273.140625 167.675781 272.75 169.800781 C 272.546875 170.902344 272.277344 171.347656 272.277344 171.347656 C 270.921875 171.566406 271.0625 170.722656 271.0625 170.722656 C 271.101562 170.542969 271.136719 170.371094 271.171875 170.195312 C 272.023438 165.890625 271.160156 161.207031 269.484375 154.964844 C 267.746094 148.472656 264.789062 146.292969 264.789062 146.292969 C 264.789062 146.292969 264.789062 146.292969 264.789062 146.285156 C 264.015625 144.660156 265.316406 144.035156 265.316406 144.035156 Z M 267.617188 143.582031 C 268.871094 142.996094 269.59375 143.089844 269.59375 143.089844 C 270.074219 143.609375 270.519531 144.171875 270.9375 144.757812 C 273.5 148.367188 274.832031 152.820312 274.878906 152.984375 L 273.621094 151.933594 C 276.25 163.222656 274.984375 168.09375 274.984375 168.09375 C 274.445312 156.246094 270.683594 148.53125 268.753906 145.304688 C 268.074219 144.160156 267.617188 143.582031 267.617188 143.582031 Z M 277.191406 173.222656 C 277.191406 173.222656 278.539062 171.660156 279.152344 168.210938 L 279.152344 168.207031 C 279.511719 166.15625 279.605469 163.429688 279 159.964844 C 278.921875 159.523438 278.832031 159.0625 278.730469 158.59375 C 278.625 158.121094 278.511719 157.640625 278.382812 157.144531 C 278.320312 156.894531 278.25 156.648438 278.183594 156.390625 C 277.972656 155.632812 277.726562 154.839844 277.445312 154.023438 C 277.445312 154.023438 277.445312 154.023438 277.445312 154.019531 C 277.445312 154.019531 277.441406 154.011719 277.4375 154.003906 C 277.433594 153.992188 277.425781 153.972656 277.417969 153.953125 C 277.417969 153.914062 277.394531 153.867188 277.382812 153.792969 C 277.347656 153.707031 277.308594 153.589844 277.257812 153.457031 C 277.257812 153.457031 277.257812 153.449219 277.257812 153.449219 C 277.234375 153.386719 277.210938 153.320312 277.183594 153.246094 C 276.792969 152.085938 275.957031 149.773438 274.804688 147.453125 C 274.675781 147.175781 274.535156 146.894531 274.390625 146.621094 C 274.316406 146.488281 274.246094 146.359375 274.171875 146.226562 C 274.085938 146.070312 274 145.914062 273.910156 145.765625 C 273.804688 145.566406 273.6875 145.378906 273.574219 145.191406 C 273.5 145.070312 273.421875 144.945312 273.347656 144.824219 C 273.222656 144.625 273.101562 144.433594 272.976562 144.253906 L 272.972656 144.253906 C 272.03125 142.855469 270.972656 141.691406 269.847656 141.089844 L 267.445312 141.691406 C 264.851562 127.261719 265.199219 120.511719 266.082031 119.488281 C 268.222656 120.257812 274.222656 133.3125 279.777344 155.597656 C 285.328125 177.890625 286.15625 192.226562 284.625 193.914062 C 283.34375 193.421875 279.847656 187.558594 275.347656 173.460938 C 275.875 173.472656 276.488281 173.417969 277.191406 173.222656 Z M 269.339844 158.882812 L 265.765625 159.769531 L 265.757812 159.769531 L 263.632812 160.304688 L 263.628906 160.304688 L 242.082031 165.683594 L 241.976562 165.707031 L 240.402344 161.152344 L 240.507812 161.128906 L 262.5 155.636719 L 262.503906 155.636719 L 264.632812 155.113281 L 264.636719 155.113281 L 267.980469 154.277344 C 268.039062 154.445312 268.097656 154.605469 268.15625 154.78125 C 268.210938 154.949219 268.273438 155.117188 268.328125 155.289062 C 268.328125 155.292969 268.328125 155.292969 268.328125 155.292969 C 268.382812 155.46875 268.441406 155.644531 268.492188 155.824219 C 268.546875 156.003906 268.601562 156.183594 268.652344 156.371094 C 268.722656 156.617188 268.789062 156.867188 268.851562 157.125 C 268.851562 157.125 268.890625 157.226562 268.949219 157.410156 L 268.949219 157.414062 C 268.960938 157.449219 268.976562 157.492188 268.992188 157.539062 C 268.992188 157.550781 268.992188 157.558594 269 157.566406 C 269 157.578125 269.007812 157.597656 269.011719 157.609375 C 269.011719 157.617188 269.019531 157.625 269.019531 157.632812 C 269.023438 157.652344 269.03125 157.671875 269.039062 157.6875 C 269.039062 157.691406 269.039062 157.695312 269.039062 157.699219 C 269.042969 157.710938 269.046875 157.726562 269.050781 157.742188 C 269.089844 157.878906 269.132812 158.046875 269.179688 158.230469 L 269.285156 158.648438 L 269.304688 158.722656 Z M 213.753906 132.46875 L 224.867188 135.042969 L 227.746094 137.84375 L 231.375 142.125 L 232.183594 146.960938 L 220.867188 146.390625 L 218.664062 147.554688 L 210.730469 151.765625 L 210.363281 140.890625 L 208.570312 138.304688 Z M 194.777344 140.261719 L 206.492188 139.984375 L 207.4375 141.585938 L 208.230469 152.039062 L 198.746094 152.800781 L 196.007812 153.011719 L 193.175781 160.09375 L 193.925781 164.386719 L 194.082031 165.246094 L 194.96875 166.296875 L 196.613281 168.269531 L 198.765625 170.84375 L 199.652344 171.898438 L 205.453125 172.324219 L 205.398438 173.511719 L 205.128906 179.503906 L 205.015625 181.867188 L 204.921875 183.90625 L 204.601562 191.097656 L 199.234375 195.1875 L 191.816406 195.1875 L 190.539062 192.394531 L 190.53125 187.488281 L 190.519531 185.472656 L 190.519531 183.144531 L 190.496094 177.214844 L 190.484375 172.902344 L 190.484375 169.789062 L 190.472656 167.414062 L 190.472656 165.242188 L 190.429688 150.121094 L 186.679688 146.042969 L 186.015625 145.328125 Z M 171.511719 148.578125 L 182.949219 146.042969 L 184.878906 148.019531 L 187.644531 150.863281 L 187.824219 165.144531 L 187.824219 165.90625 L 187.835938 168.078125 L 187.847656 170.453125 L 187.855469 173.566406 L 187.867188 177.882812 L 187.890625 183.796875 L 187.902344 186.128906 L 187.910156 188.140625 L 187.921875 191 L 185.898438 194.226562 L 185.277344 195.1875 L 176.261719 195.1875 L 173.167969 192.175781 L 173.167969 191.816406 L 173.191406 189.789062 L 173.214844 187.460938 L 173.28125 181.511719 L 173.324219 177.1875 L 173.335938 175.84375 L 172.527344 174.265625 L 171.445312 172.160156 L 170.457031 170.230469 L 168.507812 166.421875 L 168.519531 165.90625 L 168.652344 158.558594 L 163.644531 155.039062 L 161.738281 154.964844 Z M 144.167969 170.574219 L 148.371094 159.40625 L 154.269531 157.304688 L 149.542969 164.054688 L 156.410156 158.601562 L 161.566406 157.300781 L 165.773438 159.832031 L 166.648438 166.421875 L 167.121094 167.441406 L 168.609375 170.6875 L 169.503906 172.636719 L 170.480469 174.773438 L 171.507812 177.015625 L 171.507812 186.019531 L 169.425781 188.394531 L 166.816406 191.375 L 165.496094 192.886719 L 162.304688 192.503906 L 159.144531 192.128906 L 158.546875 191.109375 L 155.558594 185.921875 L 153.5 182.347656 L 153.386719 182.144531 L 151.804688 179.421875 L 151.320312 178.585938 L 150.984375 177.25 L 150.46875 175.214844 L 148.464844 167.292969 L 147.613281 174.003906 L 147.507812 174.863281 L 143.613281 172.039062 Z M 110.179688 207.972656 C 110.179688 207.972656 110.695312 208.648438 109.394531 209.097656 C 109.394531 209.097656 108.945312 208.824219 108.25 207.953125 C 106.910156 206.261719 104.652344 202.296875 102.96875 193.617188 C 102.96875 193.617188 101.574219 189.417969 102.3125 183.949219 C 102.40625 183.222656 102.542969 182.472656 102.722656 181.707031 C 102.722656 181.707031 104.167969 181.652344 104.253906 183.453125 C 104.253906 183.453125 104.253906 183.453125 104.25 183.453125 C 104.25 183.457031 104.25 183.457031 104.25 183.457031 C 104.175781 183.621094 102.699219 186.929688 104.175781 193.3125 C 105.625 199.609375 107.054688 204.15625 109.832031 207.554688 C 109.945312 207.703125 110.0625 207.839844 110.179688 207.972656 Z M 105.464844 207.476562 C 105.261719 207.253906 101.976562 203.433594 99.097656 192.578125 L 98.476562 194.101562 C 98.476562 194.101562 97.519531 189.457031 98.101562 184.988281 C 98.191406 184.273438 98.324219 183.566406 98.507812 182.878906 C 98.507812 182.878906 99.101562 182.460938 100.480469 182.386719 C 100.480469 182.386719 100.351562 183.113281 100.28125 184.445312 C 100.089844 188.207031 100.390625 196.769531 105.464844 207.476562 Z M 97.328125 181.230469 C 96.613281 182.292969 96.226562 183.820312 96.054688 185.5 C 96.042969 185.609375 96.03125 185.71875 96.023438 185.828125 C 96.011719 185.953125 95.996094 186.074219 95.992188 186.199219 C 95.980469 186.34375 95.96875 186.488281 95.960938 186.632812 C 95.953125 186.695312 95.949219 186.757812 95.949219 186.820312 C 95.945312 186.90625 95.945312 186.988281 95.941406 187.074219 C 95.921875 187.4375 95.917969 187.808594 95.917969 188.175781 C 95.917969 188.425781 95.921875 188.675781 95.929688 188.921875 L 95.929688 188.933594 C 95.9375 189.308594 95.949219 189.679688 95.96875 190.046875 L 95.96875 190.054688 C 95.980469 190.296875 95.996094 190.539062 96.015625 190.773438 C 96.011719 190.773438 96.011719 190.78125 96.015625 190.785156 C 96.023438 190.941406 96.035156 191.089844 96.046875 191.242188 C 96.058594 191.398438 96.070312 191.550781 96.085938 191.699219 C 96.089844 191.746094 96.09375 191.792969 96.097656 191.835938 C 96.121094 192.066406 96.140625 192.289062 96.164062 192.5 C 96.164062 192.511719 96.164062 192.523438 96.164062 192.535156 C 96.164062 192.578125 96.175781 192.617188 96.175781 192.667969 C 96.1875 192.761719 96.199219 192.851562 96.207031 192.941406 C 96.238281 193.164062 96.261719 193.375 96.285156 193.578125 C 96.296875 193.671875 96.308594 193.761719 96.320312 193.851562 C 96.339844 193.976562 96.351562 194.09375 96.371094 194.210938 C 96.417969 194.566406 96.464844 194.890625 96.507812 195.164062 C 96.511719 195.171875 96.511719 195.183594 96.511719 195.195312 C 96.519531 195.269531 96.53125 195.34375 96.542969 195.414062 C 96.554688 195.492188 96.570312 195.570312 96.582031 195.632812 C 96.585938 195.648438 96.589844 195.664062 96.59375 195.679688 C 96.652344 196.023438 96.6875 196.214844 96.6875 196.214844 C 97.746094 202.773438 99.804688 206.871094 101.707031 209.375 C 101.746094 209.429688 101.789062 209.488281 101.835938 209.542969 C 101.835938 209.546875 101.835938 209.546875 101.839844 209.550781 C 104 212.308594 105.921875 213.054688 105.921875 213.054688 C 106.632812 212.894531 107.210938 212.65625 107.664062 212.394531 C 110.296875 226.953125 109.960938 233.773438 109.066406 234.8125 C 106.921875 234.039062 100.921875 220.988281 95.371094 198.703125 C 89.820312 176.410156 88.992188 162.074219 90.523438 160.386719 C 91.78125 160.875 95.257812 166.667969 99.730469 180.628906 Z M 141.566406 182.9375 L 142.972656 182.589844 L 144.789062 182.136719 L 149.207031 181.035156 L 149.65625 180.921875 L 150.785156 182.757812 L 152.097656 185.257812 L 152.078125 185.261719 L 144.863281 187.0625 L 143.050781 187.515625 L 141.65625 187.863281 L 139.378906 188.425781 L 111.855469 195.289062 L 111.847656 195.292969 L 109.707031 195.816406 L 106.128906 196.714844 L 106.109375 196.632812 L 105.96875 196.0625 C 105.859375 195.617188 105.792969 195.289062 105.757812 195.101562 C 105.75 195.0625 105.75 195.03125 105.746094 195.007812 C 105.738281 194.953125 105.734375 194.929688 105.734375 194.929688 C 105.714844 194.839844 105.691406 194.75 105.671875 194.660156 C 105.667969 194.636719 105.660156 194.613281 105.65625 194.589844 C 105.625 194.449219 105.59375 194.308594 105.5625 194.167969 C 105.402344 193.417969 105.273438 192.699219 105.175781 192.007812 L 105.175781 192.003906 L 108.527344 191.171875 L 108.535156 191.171875 L 110.660156 190.636719 L 110.664062 190.636719 L 139.292969 183.503906 Z M 109.035156 184.746094 L 109.042969 184.746094 L 139.164062 177.242188 L 141.441406 176.671875 L 142.882812 176.316406 L 144.328125 175.957031 L 146.945312 178.039062 L 145.789062 178.324219 L 144.738281 178.585938 L 142.917969 179.035156 L 141.492188 179.390625 L 139.226562 179.960938 L 109.761719 187.296875 L 109.757812 187.300781 L 107.632812 187.824219 L 107.625 187.824219 L 104.914062 188.503906 C 104.90625 188.28125 104.914062 188.0625 104.914062 187.851562 C 104.917969 187.769531 104.917969 187.6875 104.921875 187.605469 C 104.933594 187.363281 104.941406 187.128906 104.953125 186.902344 C 104.957031 186.800781 104.960938 186.695312 104.964844 186.597656 C 104.984375 186.296875 105.007812 186.011719 105.035156 185.75 L 105.035156 185.746094 L 106.914062 185.273438 L 106.917969 185.273438 Z M 22.902344 206.207031 L 34.023438 203.4375 C 34.085938 203.792969 34.152344 204.140625 34.21875 204.496094 C 34.285156 204.84375 34.355469 205.191406 34.417969 205.535156 C 34.449219 205.703125 34.480469 205.871094 34.515625 206.039062 L 23.210938 209.082031 C 23.074219 208.539062 22.902344 207.3125 22.902344 206.207031 Z M 24.550781 217.039062 C 24.550781 217.039062 23.800781 214.753906 23.5625 212.335938 L 35.210938 209.4375 C 35.179688 209.28125 35.144531 209.121094 35.109375 208.964844 C 35.144531 209.121094 35.179688 209.28125 35.210938 209.4375 C 35.304688 209.859375 35.390625 210.269531 35.484375 210.679688 C 35.535156 210.914062 35.589844 211.152344 35.640625 211.382812 C 35.652344 211.433594 35.664062 211.484375 35.675781 211.535156 C 35.714844 211.703125 35.75 211.863281 35.789062 212.019531 C 35.796875 212.0625 35.808594 212.105469 35.820312 212.148438 C 35.839844 212.25 35.863281 212.355469 35.886719 212.453125 C 35.917969 212.597656 35.957031 212.742188 35.988281 212.882812 C 36.019531 213.019531 36.054688 213.164062 36.085938 213.300781 C 36.152344 213.578125 36.222656 213.847656 36.285156 214.117188 Z M 28.183594 225.582031 C 27.617188 225.132812 26.941406 223.714844 26.8125 223.257812 L 38.003906 220.472656 C 38.054688 220.640625 38.097656 220.804688 38.152344 220.972656 C 38.191406 221.109375 38.234375 221.253906 38.277344 221.394531 C 38.367188 221.699219 38.457031 222.011719 38.558594 222.324219 C 38.558594 222.324219 38.558594 222.328125 38.558594 222.332031 C 38.621094 222.539062 38.683594 222.742188 38.746094 222.953125 Z M 52.082031 244.679688 C 50.496094 245.074219 45.996094 238.425781 41.53125 224.574219 C 40.496094 221.371094 39.464844 217.78125 38.476562 213.796875 L 38.261719 212.933594 C 37.140625 208.34375 36.3125 204.203125 35.726562 200.527344 C 33.65625 187.660156 34.507812 180.527344 36.003906 180.15625 L 41.910156 178.683594 C 42.128906 180.464844 42.375 182.296875 42.660156 184.160156 C 42.773438 184.925781 42.890625 185.699219 43.015625 186.476562 C 43.078125 186.855469 43.140625 187.242188 43.203125 187.625 C 43.222656 187.769531 43.246094 187.910156 43.273438 188.054688 C 43.355469 188.578125 43.449219 189.101562 43.539062 189.632812 C 43.539062 189.640625 43.539062 189.648438 43.539062 189.660156 C 43.699219 190.589844 43.867188 191.523438 44.039062 192.46875 C 44.128906 192.945312 44.21875 193.425781 44.308594 193.902344 C 44.382812 194.269531 44.449219 194.640625 44.523438 195.011719 C 44.621094 195.535156 44.722656 196.058594 44.828125 196.585938 C 44.863281 196.765625 44.902344 196.953125 44.9375 197.132812 C 45.007812 197.484375 45.078125 197.832031 45.148438 198.183594 C 45.25 198.691406 45.355469 199.199219 45.464844 199.707031 C 45.464844 199.710938 45.464844 199.714844 45.46875 199.722656 C 45.617188 200.433594 45.773438 201.148438 45.929688 201.863281 C 46.394531 204.011719 46.890625 206.167969 47.417969 208.339844 C 47.59375 209.066406 47.765625 209.789062 47.949219 210.515625 C 48.046875 210.902344 48.140625 211.292969 48.242188 211.679688 C 48.34375 212.066406 48.441406 212.457031 48.539062 212.839844 C 48.6875 213.417969 48.835938 213.996094 48.988281 214.570312 C 49.441406 216.300781 49.910156 218.003906 50.386719 219.6875 C 50.625 220.527344 50.863281 221.359375 51.105469 222.183594 C 51.242188 222.65625 51.378906 223.128906 51.523438 223.601562 C 51.902344 224.886719 52.289062 226.160156 52.679688 227.410156 C 52.792969 227.761719 52.902344 228.113281 53.011719 228.460938 C 53.234375 229.171875 53.464844 229.878906 53.695312 230.578125 C 53.800781 230.902344 53.90625 231.226562 54.019531 231.550781 C 54.214844 232.140625 54.410156 232.722656 54.609375 233.304688 C 54.710938 233.601562 54.808594 233.902344 54.914062 234.195312 C 55.082031 234.691406 55.257812 235.1875 55.429688 235.675781 C 55.566406 236.066406 55.703125 236.453125 55.839844 236.832031 C 55.996094 237.265625 56.152344 237.703125 56.308594 238.128906 C 56.546875 238.773438 56.78125 239.410156 57.015625 240.035156 C 57.015625 240.035156 57.015625 240.035156 57.015625 240.039062 C 57.257812 240.667969 57.492188 241.289062 57.730469 241.90625 C 57.894531 242.324219 58.054688 242.738281 58.21875 243.152344 Z M 75.199219 265.25 C 72.644531 265.886719 67.183594 259.40625 60.738281 243.496094 C 60.496094 242.898438 60.253906 242.289062 60.011719 241.679688 C 59.761719 241.046875 59.519531 240.410156 59.269531 239.765625 C 59.191406 239.558594 59.109375 239.347656 59.03125 239.136719 C 58.875 238.726562 58.71875 238.308594 58.570312 237.890625 C 58.46875 237.628906 58.371094 237.367188 58.277344 237.105469 C 57.992188 236.316406 57.707031 235.511719 57.421875 234.703125 C 57.253906 234.230469 57.085938 233.757812 56.925781 233.277344 C 54.457031 226.097656 52.136719 218.210938 50.089844 209.984375 C 49.785156 208.769531 49.488281 207.554688 49.207031 206.347656 C 49.082031 205.835938 48.964844 205.328125 48.851562 204.824219 C 48.808594 204.664062 48.773438 204.503906 48.738281 204.34375 C 48.675781 204.074219 48.613281 203.804688 48.554688 203.535156 C 48.492188 203.265625 48.429688 202.992188 48.375 202.726562 C 48.335938 202.566406 48.300781 202.40625 48.265625 202.246094 C 48.253906 202.203125 48.242188 202.160156 48.238281 202.121094 C 48.058594 201.328125 47.890625 200.535156 47.722656 199.738281 C 47.648438 199.394531 47.574219 199.046875 47.5 198.703125 C 47.492188 198.664062 47.484375 198.628906 47.480469 198.589844 C 47.355469 198 47.234375 197.410156 47.113281 196.824219 C 46.992188 196.238281 46.878906 195.648438 46.765625 195.070312 C 45.550781 188.8125 44.597656 182.769531 43.957031 177.179688 C 41.878906 158.914062 43.652344 150.0625 46.335938 149.398438 L 63.179688 145.199219 C 59.035156 154.171875 62.277344 180.847656 68.402344 205.421875 C 74.523438 229.992188 84.175781 255.074219 92.042969 261.050781 Z M 95.664062 260.152344 L 95.65625 260.152344 L 95.621094 260.160156 C 90.542969 261.292969 79.023438 238.933594 70.539062 204.886719 C 62.035156 170.75 61.742188 145.558594 66.800781 144.300781 L 80.808594 140.8125 C 80.6875 141.074219 80.578125 141.347656 80.46875 141.640625 C 80.429688 141.734375 80.394531 141.832031 80.363281 141.933594 C 80.082031 142.734375 79.847656 143.640625 79.652344 144.640625 C 79.628906 144.757812 79.609375 144.878906 79.585938 145.003906 C 79.535156 145.285156 79.488281 145.578125 79.445312 145.875 C 79.429688 145.980469 79.410156 146.085938 79.398438 146.199219 C 79.320312 146.738281 79.253906 147.300781 79.199219 147.882812 C 79.175781 148.097656 79.160156 148.320312 79.140625 148.542969 C 79.109375 148.9375 79.078125 149.339844 79.054688 149.753906 C 79.046875 149.886719 79.039062 150.019531 79.035156 150.15625 C 79.023438 150.316406 79.015625 150.472656 79.011719 150.636719 C 79.003906 150.792969 79 150.949219 78.992188 151.109375 C 78.972656 151.601562 78.960938 152.109375 78.953125 152.625 C 78.953125 152.792969 78.953125 152.964844 78.953125 153.136719 C 78.867188 165.605469 81.742188 183.832031 86.027344 201.03125 C 87.011719 204.992188 88.09375 208.964844 89.242188 212.867188 C 89.367188 213.300781 89.492188 213.726562 89.621094 214.160156 C 89.621094 214.164062 89.625 214.167969 89.625 214.171875 C 89.882812 215.03125 90.140625 215.890625 90.410156 216.742188 C 90.9375 218.453125 91.476562 220.144531 92.03125 221.8125 C 92.167969 222.226562 92.308594 222.640625 92.449219 223.054688 C 92.726562 223.878906 93.007812 224.699219 93.289062 225.507812 C 93.429688 225.914062 93.574219 226.316406 93.71875 226.71875 C 93.726562 226.75 93.738281 226.78125 93.75 226.808594 C 93.882812 227.183594 94.011719 227.550781 94.148438 227.917969 C 94.453125 228.761719 94.757812 229.597656 95.070312 230.417969 C 95.195312 230.757812 95.324219 231.09375 95.453125 231.429688 C 95.597656 231.808594 95.742188 232.191406 95.890625 232.570312 C 96.039062 232.945312 96.1875 233.324219 96.332031 233.695312 C 96.488281 234.085938 96.648438 234.480469 96.804688 234.867188 C 97.066406 235.507812 97.328125 236.136719 97.582031 236.757812 C 97.648438 236.914062 97.710938 237.066406 97.78125 237.21875 C 98.171875 238.144531 98.566406 239.050781 98.960938 239.929688 C 98.980469 239.972656 99.003906 240.023438 99.027344 240.074219 C 99.625 241.414062 100.230469 242.699219 100.839844 243.921875 C 100.914062 244.078125 100.992188 244.226562 101.070312 244.378906 C 101.144531 244.53125 101.21875 244.679688 101.296875 244.828125 C 101.371094 244.980469 101.449219 245.125 101.523438 245.273438 C 101.527344 245.28125 101.535156 245.292969 101.535156 245.300781 C 101.671875 245.554688 101.804688 245.8125 101.933594 246.058594 C 101.953125 246.089844 101.964844 246.113281 101.976562 246.140625 C 102.054688 246.285156 102.128906 246.425781 102.207031 246.566406 C 102.28125 246.707031 102.355469 246.847656 102.4375 246.988281 C 102.511719 247.125 102.585938 247.261719 102.664062 247.398438 C 102.8125 247.671875 102.964844 247.941406 103.117188 248.207031 C 103.117188 248.214844 103.121094 248.21875 103.125 248.226562 C 103.261719 248.457031 103.390625 248.683594 103.523438 248.90625 C 103.6875 249.1875 103.855469 249.464844 104.023438 249.734375 C 104.089844 249.839844 104.148438 249.945312 104.214844 250.050781 C 104.453125 250.429688 104.6875 250.796875 104.925781 251.15625 C 105 251.269531 105.074219 251.378906 105.148438 251.492188 C 105.222656 251.605469 105.296875 251.710938 105.371094 251.820312 C 105.472656 251.972656 105.578125 252.117188 105.683594 252.261719 C 105.789062 252.417969 105.894531 252.566406 106.007812 252.714844 C 106.285156 253.09375 106.566406 253.460938 106.84375 253.804688 C 106.910156 253.886719 106.972656 253.964844 107.039062 254.042969 C 107.144531 254.175781 107.253906 254.304688 107.367188 254.429688 C 107.429688 254.507812 107.5 254.585938 107.566406 254.660156 C 107.578125 254.675781 107.59375 254.695312 107.609375 254.714844 C 107.738281 254.855469 107.863281 254.992188 107.988281 255.125 C 108.117188 255.261719 108.242188 255.390625 108.367188 255.515625 C 108.464844 255.613281 108.566406 255.710938 108.664062 255.804688 C 108.808594 255.941406 108.949219 256.070312 109.09375 256.191406 C 109.167969 256.253906 109.234375 256.308594 109.304688 256.371094 C 109.429688 256.472656 109.546875 256.570312 109.671875 256.664062 Z M 113.289062 255.761719 C 108.230469 257.019531 96.671875 234.632812 88.164062 200.496094 C 79.660156 166.359375 79.371094 141.167969 84.425781 139.910156 C 88.851562 138.808594 98.261719 155.816406 106.242188 182.960938 L 105.476562 183.152344 C 105.496094 183.089844 105.507812 183.054688 105.507812 183.054688 C 104.949219 180 102.667969 180.28125 101.984375 180.429688 C 98.550781 169.628906 93.753906 157.28125 89.988281 158.21875 C 83.5 159.835938 92.835938 197.628906 93.238281 199.238281 C 93.636719 200.84375 103.125 238.59375 109.609375 236.980469 C 113.476562 236.019531 111.769531 222.289062 109.59375 210.710938 C 111.972656 209.386719 111.191406 207.378906 111.191406 207.378906 C 111.160156 207.328125 111.128906 207.292969 111.09375 207.246094 L 111.097656 207.246094 L 112.246094 206.960938 C 118.050781 234.96875 117.742188 254.648438 113.289062 255.761719 Z M 218.023438 233.007812 L 218.015625 233.425781 L 217.824219 241.058594 L 187.644531 243.050781 L 218.546875 245.953125 L 220.429688 256.777344 L 225.007812 306.136719 L 225.089844 307.003906 C 204.378906 312.410156 183.773438 311.949219 163.277344 305.703125 L 165.074219 249.503906 L 184.953125 246.589844 L 163.523438 244.574219 L 153.910156 224.664062 L 145.621094 206.738281 L 145.253906 198.769531 L 157.542969 195.714844 L 157.84375 196.292969 L 167.410156 197.113281 L 169.785156 194.671875 L 172.574219 197.75 L 180.855469 198.476562 L 184.453125 201.804688 L 186.027344 214.386719 L 203.511719 233.058594 L 190.238281 213.367188 L 190.652344 199.597656 L 200.097656 199.832031 L 222.222656 183.121094 L 222.613281 179.5 L 222.824219 177.472656 L 222.867188 177.40625 L 222.878906 177.40625 L 225.164062 174.503906 L 225.175781 174.503906 L 230.875 167.292969 L 218.855469 173.074219 L 212.84375 171.648438 L 212.832031 171.648438 L 203.949219 169.554688 L 200.675781 168.78125 L 199.578125 167.523438 L 197.875 165.566406 L 197.867188 165.566406 L 197.351562 164.96875 L 196.992188 163.613281 L 196.277344 160.839844 L 198.210938 156.144531 L 210.660156 154.84375 L 221.089844 149.703125 L 230.304688 150.242188 L 233.925781 154.40625 L 235.480469 156.199219 L 235.75 156.511719 L 236.222656 158.394531 L 236.960938 161.332031 L 237.96875 165.398438 L 238.089844 165.867188 L 238.394531 167.078125 L 239.628906 170.910156 L 240.320312 173.058594 L 240.929688 174.929688 L 240.972656 175.085938 L 244.601562 188.5625 Z M 207.144531 186.023438 L 207.144531 177.164062 L 208.847656 174.003906 L 218.0625 176.273438 L 218.074219 176.273438 L 218.152344 176.300781 L 218.152344 180.589844 L 218.128906 180.609375 L 213.28125 186.023438 Z M 266.019531 169.171875 L 266 169.171875 L 245.089844 174.375 L 244.976562 174.40625 L 244.128906 171.957031 L 244.234375 171.933594 L 265.292969 166.671875 L 265.304688 166.671875 L 267.4375 166.148438 L 270.203125 165.453125 L 270.203125 165.457031 C 270.207031 165.476562 270.207031 165.5 270.207031 165.519531 L 270.207031 165.550781 C 270.207031 165.566406 270.210938 165.582031 270.210938 165.59375 L 270.210938 165.632812 C 270.210938 165.730469 270.21875 165.832031 270.210938 165.933594 C 270.21875 166.265625 270.214844 166.605469 270.203125 166.941406 C 270.203125 167.039062 270.203125 167.136719 270.203125 167.234375 C 270.199219 167.382812 270.191406 167.53125 270.1875 167.683594 C 270.179688 167.832031 270.167969 167.984375 270.15625 168.136719 L 268.128906 168.636719 Z M 290.730469 214.386719 C 286.277344 215.496094 276.773438 198.253906 268.757812 170.796875 L 269.902344 170.519531 C 269.894531 170.574219 269.882812 170.625 269.875 170.679688 C 269.875 170.679688 270.128906 172.828125 272.859375 172.867188 C 276.375 184.117188 281.304688 197.039062 285.167969 196.078125 C 291.65625 194.460938 282.320312 156.667969 281.917969 155.0625 C 281.515625 153.457031 272.035156 115.703125 265.546875 117.320312 C 261.78125 118.253906 263.332031 131.414062 265.371094 142.5625 C 264.707031 142.742188 262.539062 143.558594 263.484375 146.527344 C 263.484375 146.527344 263.507812 146.550781 263.554688 146.597656 L 262.796875 146.789062 C 257.109375 119.074219 257.4375 99.636719 261.867188 98.539062 C 266.921875 97.277344 278.480469 119.664062 286.988281 153.800781 C 295.492188 187.9375 295.785156 213.128906 290.730469 214.386719 Z M 294.34375 213.484375 C 294.355469 213.464844 294.363281 213.445312 294.375 213.425781 C 294.40625 213.359375 294.433594 213.289062 294.464844 213.21875 C 294.542969 213.039062 294.617188 212.851562 294.6875 212.660156 C 294.726562 212.5625 294.761719 212.460938 294.792969 212.363281 C 295.074219 211.5625 295.308594 210.65625 295.5 209.660156 C 295.523438 209.539062 295.542969 209.417969 295.566406 209.296875 C 295.617188 209.011719 295.664062 208.722656 295.710938 208.425781 C 295.726562 208.320312 295.742188 208.210938 295.753906 208.101562 C 295.832031 207.558594 295.898438 207 295.953125 206.417969 C 295.972656 206.207031 295.996094 205.992188 296.007812 205.773438 C 296.054688 205.246094 296.089844 204.699219 296.117188 204.140625 C 296.128906 203.980469 296.132812 203.820312 296.140625 203.65625 C 296.144531 203.503906 296.152344 203.34375 296.160156 203.183594 C 296.175781 202.691406 296.1875 202.1875 296.195312 201.671875 C 296.199219 201.503906 296.199219 201.328125 296.199219 201.160156 C 296.28125 188.691406 293.40625 170.464844 289.125 153.265625 C 288.136719 149.304688 287.058594 145.332031 285.910156 141.429688 C 285.785156 140.996094 285.660156 140.566406 285.527344 140.136719 C 285.527344 140.132812 285.527344 140.125 285.527344 140.125 C 285.269531 139.261719 285.007812 138.40625 284.742188 137.554688 C 284.214844 135.84375 283.671875 134.152344 283.121094 132.484375 C 282.984375 132.066406 282.84375 131.65625 282.703125 131.242188 C 282.425781 130.414062 282.144531 129.597656 281.859375 128.789062 C 281.722656 128.386719 281.578125 127.980469 281.433594 127.578125 C 281.425781 127.546875 281.414062 127.515625 281.402344 127.488281 C 281.269531 127.113281 281.136719 126.746094 281.003906 126.378906 C 280.699219 125.535156 280.394531 124.699219 280.082031 123.878906 C 279.953125 123.539062 279.828125 123.203125 279.699219 122.867188 C 278.996094 121.027344 278.285156 119.25 277.570312 117.539062 C 277.503906 117.382812 277.4375 117.226562 277.371094 117.078125 C 277.242188 116.765625 277.109375 116.460938 276.980469 116.15625 C 276.859375 115.875 276.738281 115.59375 276.613281 115.316406 C 275.816406 113.5 275.015625 111.78125 274.210938 110.171875 C 274.09375 109.9375 273.976562 109.699219 273.863281 109.46875 C 273.78125 109.3125 273.699219 109.15625 273.621094 108.996094 C 273.484375 108.742188 273.355469 108.492188 273.222656 108.238281 C 271.566406 105.113281 269.917969 102.484375 268.3125 100.492188 C 268.25 100.414062 268.1875 100.335938 268.121094 100.257812 C 267.644531 99.679688 267.175781 99.160156 266.707031 98.703125 C 266.632812 98.632812 266.5625 98.5625 266.488281 98.496094 C 266.210938 98.234375 265.9375 97.992188 265.664062 97.777344 C 265.605469 97.726562 265.542969 97.679688 265.484375 97.632812 L 279.492188 94.140625 L 279.5 94.140625 L 279.535156 94.132812 C 284.613281 93 296.132812 115.359375 304.617188 149.40625 C 313.121094 183.542969 313.414062 208.734375 308.355469 209.992188 Z M 328.816406 204.898438 L 311.972656 209.09375 C 316.121094 200.121094 312.875 173.445312 306.753906 148.875 C 300.632812 124.300781 290.980469 99.222656 283.113281 93.242188 L 299.957031 89.046875 C 302.597656 88.386719 308.1875 95.152344 314.792969 111.707031 L 315.097656 112.46875 C 315.242188 112.84375 315.386719 113.214844 315.53125 113.59375 C 315.675781 113.96875 315.824219 114.347656 315.964844 114.730469 C 316.242188 115.464844 316.519531 116.203125 316.792969 116.953125 C 317.464844 118.792969 318.125 120.6875 318.777344 122.621094 C 318.996094 123.269531 319.210938 123.921875 319.421875 124.578125 C 319.746094 125.5625 320.0625 126.558594 320.378906 127.558594 C 320.484375 127.894531 320.589844 128.230469 320.691406 128.566406 C 320.902344 129.242188 321.109375 129.917969 321.3125 130.601562 C 321.464844 131.097656 321.613281 131.601562 321.757812 132.101562 C 322.324219 134.003906 322.871094 135.933594 323.398438 137.890625 C 323.464844 138.121094 323.527344 138.355469 323.589844 138.585938 C 323.726562 139.105469 323.871094 139.625 324.007812 140.148438 C 324.152344 140.695312 324.296875 141.246094 324.4375 141.796875 C 324.652344 142.632812 324.867188 143.46875 325.074219 144.3125 C 325.273438 145.097656 325.464844 145.882812 325.652344 146.660156 C 325.78125 147.203125 325.914062 147.75 326.039062 148.292969 C 326.074219 148.441406 326.109375 148.585938 326.140625 148.730469 C 326.257812 149.222656 326.371094 149.710938 326.480469 150.199219 C 326.707031 151.179688 326.925781 152.152344 327.132812 153.121094 C 327.65625 155.542969 328.148438 157.9375 328.59375 160.292969 C 328.664062 160.640625 328.730469 160.988281 328.792969 161.335938 C 328.859375 161.683594 328.921875 162.03125 328.984375 162.375 C 329.183594 163.460938 329.375 164.53125 329.554688 165.597656 C 329.558594 165.613281 329.5625 165.628906 329.5625 165.644531 C 329.683594 166.351562 329.800781 167.054688 329.910156 167.75 C 330 168.320312 330.089844 168.886719 330.171875 169.449219 C 330.226562 169.78125 330.277344 170.113281 330.320312 170.445312 C 330.449219 171.308594 330.570312 172.160156 330.679688 173.003906 C 330.722656 173.324219 330.769531 173.644531 330.808594 173.960938 C 331.027344 175.640625 331.222656 177.292969 331.386719 178.902344 L 331.402344 179.039062 C 333.144531 196.027344 331.367188 204.265625 328.816406 204.898438 Z M 339.585938 175.886719 L 333.445312 177.417969 C 333.417969 177.183594 333.390625 176.945312 333.363281 176.710938 C 333.316406 176.300781 333.265625 175.882812 333.214844 175.464844 C 333.113281 174.625 333.007812 173.78125 332.890625 172.925781 C 332.835938 172.496094 332.777344 172.066406 332.714844 171.636719 C 332.664062 171.289062 332.613281 170.941406 332.566406 170.59375 C 332.367188 169.203125 332.144531 167.789062 331.90625 166.351562 C 331.667969 164.886719 331.40625 163.402344 331.132812 161.894531 C 331.015625 161.25 330.890625 160.601562 330.769531 159.945312 C 330.753906 159.894531 330.746094 159.839844 330.738281 159.789062 C 330.601562 159.089844 330.464844 158.390625 330.324219 157.683594 C 330.101562 156.542969 329.859375 155.386719 329.613281 154.226562 C 329.085938 151.726562 328.515625 149.199219 327.902344 146.648438 C 327.800781 146.214844 327.695312 145.78125 327.589844 145.347656 C 327.460938 144.824219 327.335938 144.300781 327.203125 143.78125 C 326.898438 142.566406 326.589844 141.355469 326.277344 140.152344 C 326.183594 139.816406 326.097656 139.472656 326.011719 139.140625 C 325.84375 138.527344 325.683594 137.914062 325.519531 137.308594 C 325.40625 136.898438 325.292969 136.492188 325.179688 136.085938 C 324.761719 134.5625 324.328125 133.058594 323.890625 131.570312 C 323.769531 131.152344 323.644531 130.738281 323.523438 130.320312 C 323.398438 129.910156 323.273438 129.496094 323.148438 129.082031 C 323.03125 128.691406 322.90625 128.296875 322.789062 127.910156 C 322.023438 125.441406 321.242188 123.023438 320.4375 120.679688 C 320.308594 120.292969 320.175781 119.902344 320.039062 119.523438 C 319.84375 118.957031 319.648438 118.394531 319.449219 117.839844 C 319.363281 117.601562 319.28125 117.359375 319.191406 117.125 C 318.96875 116.5 318.742188 115.878906 318.511719 115.265625 C 318.484375 115.179688 318.453125 115.097656 318.417969 115.011719 C 318.148438 114.277344 317.871094 113.550781 317.597656 112.832031 L 323.503906 111.359375 C 325 110.988281 329.101562 116.886719 333.308594 129.222656 C 334.59375 132.96875 335.878906 137.296875 337.105469 142.234375 C 338.097656 146.21875 338.871094 149.871094 339.460938 153.183594 C 342.023438 167.507812 341.164062 175.492188 339.585938 175.886719 Z M 351.730469 147.8125 L 341.167969 150.445312 C 341 149.582031 340.832031 148.734375 340.660156 147.90625 L 351.851562 145.117188 C 351.953125 145.578125 352.019531 147.152344 351.730469 147.8125 Z M 351.730469 147.8125 " fill-opacity="1" fill-rule="nonzero"/></g><path fill="#f5f5f5" d="M 288.632812 95.199219 C 294.785156 102.324219 304.207031 126.324219 304.207031 126.324219 C 302.175781 116.710938 297.914062 104.734375 297.914062 104.734375 C 300.34375 107.988281 306.335938 125.199219 306.519531 125.734375 C 305.128906 119.417969 300.769531 103.933594 300.769531 103.933594 C 302.710938 107.21875 308.734375 124.589844 308.925781 125.136719 C 307.296875 117.515625 302.554688 103.214844 302.554688 103.214844 C 304.433594 105.664062 311.289062 124.015625 311.289062 124.015625 C 309.363281 114.464844 304.222656 102.617188 304.222656 102.617188 C 308.191406 107.921875 314.847656 123.671875 314.847656 123.671875 C 309.886719 103.761719 300.367188 92.273438 300.367188 92.273438 Z M 288.632812 95.199219 " fill-opacity="1" fill-rule="nonzero"/><path fill="#f5f5f5" d="M 281.300781 97.023438 L 269.566406 99.949219 C 275.71875 107.074219 285.136719 131.074219 285.136719 131.074219 C 283.105469 121.460938 278.847656 109.488281 278.847656 109.488281 C 281.273438 112.742188 287.265625 129.945312 287.453125 130.484375 C 286.058594 124.175781 281.703125 108.6875 281.703125 108.6875 C 283.640625 111.972656 289.664062 129.34375 289.855469 129.886719 C 288.226562 122.269531 283.484375 107.96875 283.484375 107.96875 C 285.371094 110.417969 292.21875 128.765625 292.21875 128.765625 C 290.296875 119.214844 285.15625 107.367188 285.15625 107.367188 C 289.121094 112.671875 295.78125 128.421875 295.78125 128.421875 C 290.816406 108.511719 281.300781 97.023438 281.300781 97.023438 Z M 281.300781 97.023438 " fill-opacity="1" fill-rule="nonzero"/><path fill="#f5f5f5" d="M 307.179688 171.984375 C 307.179688 171.984375 308.6875 189.015625 307.671875 195.558594 C 307.671875 195.558594 306.652344 182.699219 303.875 173.363281 C 303.945312 173.898438 306.425781 192.8125 305.914062 195.816406 C 305.914062 195.816406 303.390625 180.945312 301.253906 173.453125 C 301.253906 173.453125 304.179688 192.144531 304.003906 196.015625 C 304.003906 196.015625 300.585938 180.296875 298.851562 174.066406 C 298.929688 174.570312 301.722656 192.625 301.105469 196.648438 C 301.105469 196.648438 299.25 184.074219 296.53125 174.628906 C 296.53125 174.628906 299.472656 200.242188 297.386719 209.421875 L 309.121094 206.496094 C 309.121094 206.5 312.136719 191.894531 307.179688 171.984375 Z M 307.179688 171.984375 " fill-opacity="1" fill-rule="nonzero"/><path fill="#f5f5f5" d="M 327.109375 190.71875 C 327.109375 190.71875 326.089844 177.859375 323.3125 168.519531 C 323.378906 169.054688 325.863281 187.96875 325.347656 190.972656 C 325.347656 190.972656 322.828125 176.101562 320.691406 168.613281 C 320.691406 168.613281 323.613281 187.300781 323.441406 191.175781 C 323.441406 191.175781 320.019531 175.457031 318.289062 169.222656 C 318.367188 169.730469 321.15625 187.78125 320.542969 191.804688 C 320.542969 191.804688 318.683594 179.230469 315.96875 169.789062 C 315.96875 169.789062 318.910156 195.398438 316.820312 204.582031 L 328.558594 201.65625 C 328.558594 201.65625 331.570312 187.046875 326.613281 167.136719 C 326.613281 167.140625 328.121094 184.175781 327.109375 190.71875 Z M 327.109375 190.71875 " fill-opacity="1" fill-rule="nonzero"/><path fill="#f5f5f5" d="M 324.683594 114.289062 L 319.964844 115.46875 C 322.390625 119.800781 327.570312 135.898438 327.730469 136.398438 C 327.121094 131.078125 325.0625 123.832031 325 123.609375 C 327.210938 126.253906 330.050781 135.835938 330.050781 135.835938 C 328.984375 128.324219 327.007812 123.492188 326.933594 123.304688 C 329.441406 126.789062 332.457031 135.234375 332.457031 135.234375 C 329.996094 122.449219 324.683594 114.289062 324.683594 114.289062 Z M 324.683594 114.289062 " fill-opacity="1" fill-rule="nonzero"/><path fill="#f5f5f5" d="M 336.460938 163.746094 C 336.460938 163.746094 335.96875 158.488281 333.335938 151.214844 C 333.335938 151.214844 335.320312 161.019531 334.613281 164.386719 C 334.613281 164.386719 333.015625 156.867188 331.023438 151.804688 C 331.113281 152.316406 334.09375 168.96875 333.984375 173.933594 L 338.703125 172.757812 C 338.703125 172.757812 339.570312 163.0625 335.742188 150.613281 C 335.738281 150.613281 337.039062 159.496094 336.460938 163.746094 Z M 336.460938 163.746094 " fill-opacity="1" fill-rule="nonzero"/></svg>