<svg xmlns="http://www.w3.org/2000/svg" xmlns:xlink="http://www.w3.org/1999/xlink" width="500" zoomAndPan="magnify" viewBox="0 0 375 374.999991" height="500" preserveAspectRatio="xMidYMid meet" version="1.0"><defs><clipPath id="373eae4a25"><path d="M 0 81.5625 L 375 81.5625 L 375 293.8125 L 0 293.8125 Z M 0 81.5625 " clip-rule="nonzero"/></clipPath></defs><g clip-path="url(#373eae4a25)"><path fill="#ffffff" d="M 357.351562 158.089844 L 351.101562 158.089844 L 351.101562 138.632812 C 351.101562 127.875 342.34375 119.117188 331.589844 119.117188 L 322.425781 119.117188 L 322.425781 101.839844 C 322.425781 90.691406 313.351562 81.617188 302.207031 81.617188 L 279.410156 81.617188 C 268.265625 81.617188 259.191406 90.691406 259.191406 101.839844 L 259.191406 158.089844 L 115.808594 158.089844 L 115.808594 101.839844 C 115.808594 90.691406 106.734375 81.617188 95.589844 81.617188 L 72.792969 81.617188 C 61.648438 81.617188 52.574219 90.691406 52.574219 101.839844 L 52.574219 119.117188 L 43.410156 119.117188 C 32.65625 119.117188 23.898438 127.875 23.898438 138.632812 L 23.898438 158.089844 L 17.648438 158.089844 C 7.917969 158.089844 0 166.007812 0 175.734375 L 0 199.265625 C 0 208.992188 7.917969 216.910156 17.648438 216.910156 L 23.898438 216.910156 L 23.898438 236.367188 C 23.898438 247.125 32.65625 255.882812 43.410156 255.882812 L 52.574219 255.882812 L 52.574219 273.160156 C 52.574219 284.308594 61.648438 293.382812 72.792969 293.382812 L 95.589844 293.382812 C 106.734375 293.382812 115.808594 284.308594 115.808594 273.160156 L 115.808594 216.910156 L 259.191406 216.910156 L 259.191406 273.160156 C 259.191406 284.308594 268.265625 293.382812 279.410156 293.382812 L 302.207031 293.382812 C 313.351562 293.382812 322.425781 284.308594 322.425781 273.160156 L 322.425781 255.882812 L 331.589844 255.882812 C 342.34375 255.882812 351.101562 247.125 351.101562 236.367188 L 351.101562 216.910156 L 357.351562 216.910156 C 367.082031 216.910156 375 208.992188 375 199.265625 L 375 175.734375 C 375 166.007812 367.082031 158.089844 357.351562 158.089844 Z M 17.648438 205.148438 C 14.40625 205.148438 11.765625 202.507812 11.765625 199.265625 L 11.765625 175.734375 C 11.765625 172.492188 14.40625 169.851562 17.648438 169.851562 L 23.898438 169.851562 L 23.898438 205.148438 Z M 43.410156 244.117188 C 39.140625 244.117188 35.660156 240.640625 35.660156 236.367188 L 35.660156 138.632812 C 35.660156 134.359375 39.140625 130.882812 43.410156 130.882812 L 52.574219 130.882812 L 52.574219 244.117188 Z M 104.042969 273.160156 C 104.042969 277.824219 100.25 281.617188 95.589844 281.617188 L 72.792969 281.617188 C 68.132812 281.617188 64.339844 277.824219 64.339844 273.160156 L 64.339844 101.839844 C 64.339844 97.175781 68.132812 93.382812 72.792969 93.382812 L 95.589844 93.382812 C 100.25 93.382812 104.042969 97.175781 104.042969 101.839844 Z M 115.808594 205.148438 L 115.808594 169.851562 L 259.191406 169.851562 L 259.191406 205.148438 Z M 310.660156 273.160156 C 310.660156 277.824219 306.867188 281.617188 302.207031 281.617188 L 279.410156 281.617188 C 274.75 281.617188 270.957031 277.824219 270.957031 273.160156 L 270.957031 101.839844 C 270.957031 97.175781 274.75 93.382812 279.410156 93.382812 L 302.207031 93.382812 C 306.867188 93.382812 310.660156 97.175781 310.660156 101.839844 Z M 339.339844 236.367188 C 339.339844 240.640625 335.859375 244.117188 331.589844 244.117188 L 322.425781 244.117188 L 322.425781 130.882812 L 331.589844 130.882812 C 335.859375 130.882812 339.339844 134.359375 339.339844 138.632812 Z M 363.234375 199.265625 C 363.234375 202.507812 360.59375 205.148438 357.351562 205.148438 L 351.101562 205.148438 L 351.101562 169.851562 L 357.351562 169.851562 C 360.59375 169.851562 363.234375 172.492188 363.234375 175.734375 Z M 363.234375 199.265625 " fill-opacity="1" fill-rule="nonzero"/></g></svg>